<?xml version="1.0" standalone="no"?>
<!DOCTYPE svg PUBLIC "-//W3C//DTD SVG 20010904//EN"
 "http://www.w3.org/TR/2001/REC-SVG-20010904/DTD/svg10.dtd">
<svg version="1.0" xmlns="http://www.w3.org/2000/svg"
 width="700.000000pt" height="700.000000pt" viewBox="0 0 700.000000 700.000000"
 preserveAspectRatio="xMidYMid meet">
<metadata>
Created by potrace 1.11, written by Peter Selinger 2001-2013
</metadata>
<g transform="translate(0.000000,700.000000) scale(0.100000,-0.100000)"
fill="#000000" stroke="none">
<path d="M3390 6990 c-14 -4 -41 -15 -59 -25 -84 -43 -3210 -2134 -3245 -2170
-22 -22 -49 -60 -60 -85 -21 -45 -21 -50 -21 -1175 l0 -1130 21 -46 c12 -25
38 -62 58 -83 20 -20 360 -251 754 -514 394 -262 719 -479 722 -482 6 -6 452
-303 465 -310 13 -7 248 -163 255 -170 6 -6 447 -300 472 -315 25 -14 471
-312 483 -322 34 -29 122 -74 160 -84 54 -14 137 -7 185 14 19 9 759 499 1645
1089 1264 844 1617 1083 1642 1116 66 87 63 32 63 1244 0 1060 -1 1100 -19
1148 -11 28 -32 67 -46 86 -18 24 -553 386 -1629 1104 -882 587 -1622 1078
-1647 1090 -46 24 -152 35 -199 20z m-223 -1540 l0 -691 -30 -22 c-17 -12
-308 -207 -646 -433 l-616 -411 -517 346 c-285 190 -518 348 -518 351 0 6
2312 1549 2321 1549 4 1 7 -310 6 -689z m764 585 c73 -49 139 -93 144 -97 6
-5 60 -41 120 -80 61 -40 115 -76 120 -80 6 -5 60 -41 120 -80 61 -40 115 -76
120 -80 6 -5 114 -77 240 -160 127 -84 235 -156 240 -160 6 -4 60 -41 120 -80
61 -40 115 -76 120 -80 6 -5 60 -41 120 -80 61 -40 115 -76 120 -80 6 -5 114
-77 240 -160 127 -84 232 -155 235 -158 3 -3 26 -18 53 -33 26 -15 47 -31 47
-35 0 -4 -199 -140 -443 -302 -243 -162 -443 -298 -445 -302 -2 -5 -8 -8 -12
-8 -5 0 -37 -20 -72 -44 l-63 -44 -496 332 c-273 182 -563 376 -645 432 l-149
100 -1 685 c-1 376 1 687 3 692 5 9 -4 14 164 -98z m-71 -2059 c206 -138 377
-253 380 -257 3 -3 10 -8 15 -10 13 -5 264 -173 262 -176 -1 0 -238 -159 -526
-352 -325 -217 -529 -347 -537 -343 -7 4 -244 162 -527 352 l-514 345 166 111
c91 61 328 219 526 352 198 132 364 238 370 234 5 -3 179 -118 385 -256z
m-2543 -426 c21 -17 15 -21 -348 -263 -203 -136 -370 -247 -371 -247 -3 0 -2
982 1 988 1 3 680 -449 718 -478z m5018 -14 c0 -317 -3 -486 -10 -486 -6 0
-173 109 -373 243 -293 195 -360 244 -347 252 9 6 174 116 368 246 194 130
354 235 357 234 3 -2 5 -222 5 -489z m-245 -1056 c0 -6 -2313 -1550 -2322
-1550 -2 0 -4 311 -4 692 l1 691 550 368 c303 203 557 373 565 379 8 6 51 34
95 63 l79 54 518 -346 c284 -190 517 -348 518 -351z m-3564 263 l640 -428 1
-693 c1 -381 -3 -692 -8 -690 -16 6 -2319 1543 -2318 1548 0 7 1022 689 1034
690 6 0 298 -192 651 -427z"/>
</g>
</svg>
